<svg xmlns="http://www.w3.org/2000/svg" id="Ebene_1" data-name="Ebene 1" viewBox="90.72 91.69 664.23 183.34"><defs><style>.cls-1{fill:#19486a;}.cls-2{fill:#dd1367;}</style></defs><path class="cls-1" d="M107.08,111.2a4.88,4.88,0,0,1,3.41-1.25,4.49,4.49,0,0,1,2,.47,4,4,0,0,1,2.22,3.2h13.62a14.32,14.32,0,0,0-2.68-7.69,15.1,15.1,0,0,0-6.34-5,21.79,21.79,0,0,0-8.8-1.72,20.64,20.64,0,0,0-10.42,2.56,17.32,17.32,0,0,0-6.93,7.34,26.7,26.7,0,0,0,0,22.3,17.28,17.28,0,0,0,6.82,7.3,19.58,19.58,0,0,0,10,2.54,29,29,0,0,0,7.54-.91,20.54,20.54,0,0,0,6.06-2.64,20.32,20.32,0,0,0,4.68-4.31V117H111.19l-.3,9.6,4.14-.29v3.09a.52.52,0,0,0-.23.12l-.18.11a8.52,8.52,0,0,1-1.92.7,9.18,9.18,0,0,1-2.16.23,4.78,4.78,0,0,1-3.28-1.19,7.64,7.64,0,0,1-2.13-3.49,18,18,0,0,1-.76-5.62,20,20,0,0,1,.67-5.53A7.61,7.61,0,0,1,107.08,111.2Z"/><path class="cls-1" d="M161.68,109.43a18.89,18.89,0,0,0-9.79-2.33,19.52,19.52,0,0,0-9.28,2.09,14.84,14.84,0,0,0-6.09,6,18.39,18.39,0,0,0-2.15,9.06,18.9,18.9,0,0,0,2.09,9.14,14.18,14.18,0,0,0,6,5.88,19.74,19.74,0,0,0,9.26,2,22.34,22.34,0,0,0,8.44-1.49,13.59,13.59,0,0,0,5.82-4.25,11.83,11.83,0,0,0,2.45-6.49H156.09a2,2,0,0,1-.73,1.22,4.61,4.61,0,0,1-1.46.82,5.47,5.47,0,0,1-1.77.29,5.75,5.75,0,0,1-3.09-.73,4.22,4.22,0,0,1-1.72-2.18,9.18,9.18,0,0,1-.44-1.87h21.61a22.29,22.29,0,0,0-1.17-10.48A13.28,13.28,0,0,0,161.68,109.43Zm-14.34,9.94a5.2,5.2,0,0,1,1.55-2.61,4.9,4.9,0,0,1,3.18-.93,3.7,3.7,0,0,1,3.72,3.5Z"/><path class="cls-1" d="M217.52,140.58V118.05a13.75,13.75,0,0,0-1.23-6.15,8.21,8.21,0,0,0-3.26-3.64,9.52,9.52,0,0,0-4.77-1.16,10,10,0,0,0-5.53,1.48,8.54,8.54,0,0,0-2.71,2.77,7.65,7.65,0,0,0-3-3.12,9.36,9.36,0,0,0-4.6-1.13,8.38,8.38,0,0,0-4.69,1.48,9.63,9.63,0,0,0-2.58,2.55l-.24-3.33H174.43v32.78h10.83V119.64a6.42,6.42,0,0,1,1.14-1.54,2.72,2.72,0,0,1,1.95-.81,2.4,2.4,0,0,1,1.16.29,1.8,1.8,0,0,1,.79.9,3.72,3.72,0,0,1,.26,1.43v20.67h10.77V119.73a7.2,7.2,0,0,1,1.22-1.63,2.8,2.8,0,0,1,1.93-.81,2.19,2.19,0,0,1,1.16.29,2.08,2.08,0,0,1,.76.9,3.38,3.38,0,0,1,.29,1.43v20.67Z"/><path class="cls-1" d="M254.93,135.54a11.83,11.83,0,0,0,2.45-6.49H245a2,2,0,0,1-.72,1.22,4.61,4.61,0,0,1-1.46.82,5.53,5.53,0,0,1-1.78.29,5.69,5.69,0,0,1-3.08-.73,4.22,4.22,0,0,1-1.72-2.18,8,8,0,0,1-.44-1.87h21.61a22.41,22.41,0,0,0-1.17-10.48,13.29,13.29,0,0,0-5.65-6.69,18.83,18.83,0,0,0-9.78-2.33,19.57,19.57,0,0,0-9.29,2.09,14.82,14.82,0,0,0-6.08,6,18.29,18.29,0,0,0-2.15,9.06,18.78,18.78,0,0,0,2.09,9.14,14.18,14.18,0,0,0,6,5.88,19.71,19.71,0,0,0,9.26,2,22.38,22.38,0,0,0,8.44-1.49A13.71,13.71,0,0,0,254.93,135.54Zm-17.09-18.78a4.9,4.9,0,0,1,3.18-.93,3.72,3.72,0,0,1,1.86.47,3.65,3.65,0,0,1,1.31,1.28,3.79,3.79,0,0,1,.55,1.75l-8.45,0A5.2,5.2,0,0,1,237.84,116.76Z"/><polygon class="cls-1" points="281.89 107.8 278.69 107.8 269.31 107.8 266.11 107.8 266.11 117.81 269.31 117.81 269.31 130.56 264.07 130.56 264.07 140.58 269.31 140.58 281.89 140.58 286.26 140.58 286.26 130.56 281.89 130.56 281.89 107.8"/><rect class="cls-1" x="269.25" y="94.87" width="12.69" height="9.78"/><path class="cls-1" d="M321.22,108.58A12.19,12.19,0,0,0,315,107.1a12.64,12.64,0,0,0-4.16.67,12.91,12.91,0,0,0-3.76,2.09c-.45.36-.9.78-1.34,1.21l-.23-3.27H293.19v32.78h12.57V121c.43-.47.82-.88,1.17-1.22a8.31,8.31,0,0,1,2-1.51,4.64,4.64,0,0,1,2.1-.5,2.71,2.71,0,0,1,1.54.41,2.24,2.24,0,0,1,.88,1.17,5.61,5.61,0,0,1,.26,1.8v19.45h12.58V119.5a15.71,15.71,0,0,0-1.29-6.67A9.33,9.33,0,0,0,321.22,108.58Z"/><path class="cls-1" d="M350,132.54a5.61,5.61,0,0,1-1.69.24,7.8,7.8,0,0,1-2.48-.35,3.31,3.31,0,0,1-1.54-1,2.53,2.53,0,0,1-.53-1.6h-11a9.82,9.82,0,0,0,2,6.14,12.26,12.26,0,0,0,5.59,4,23.46,23.46,0,0,0,8.33,1.37,20.88,20.88,0,0,0,7.89-1.37,11.12,11.12,0,0,0,5.12-3.93,10.41,10.41,0,0,0,1.78-6.06,8.79,8.79,0,0,0-2-6.11,10.11,10.11,0,0,0-4.54-3,44.08,44.08,0,0,0-6.43-1.4c-1.13-.19-2.06-.37-2.8-.52a6,6,0,0,1-1.74-.61,1.18,1.18,0,0,1-.64-1.08,1.2,1.2,0,0,1,.32-.79,2.25,2.25,0,0,1,.93-.61,4.12,4.12,0,0,1,1.43-.23,4.69,4.69,0,0,1,2.64.64,2.34,2.34,0,0,1,1.08,1.81h11a10.51,10.51,0,0,0-2-5.74,11.78,11.78,0,0,0-5-3.84,19.24,19.24,0,0,0-7.57-1.37,20.4,20.4,0,0,0-7.8,1.37,11.39,11.39,0,0,0-5.1,3.87,9.64,9.64,0,0,0-1.77,5.71,8.38,8.38,0,0,0,1.86,5.76,10,10,0,0,0,4.37,2.94,41.68,41.68,0,0,0,6.23,1.48c1.36.24,2.4.45,3.14.65a5.52,5.52,0,0,1,1.81.78,1.5,1.5,0,0,1,.7,1.25,1.31,1.31,0,0,1-.44,1A2.87,2.87,0,0,1,350,132.54Z"/><path class="cls-1" d="M399.7,134.55a14.9,14.9,0,0,0,2.36-7.54H389.54a6.59,6.59,0,0,1-.73,2.39,3.64,3.64,0,0,1-1.48,1.48,4.43,4.43,0,0,1-2.1.5,3.31,3.31,0,0,1-2.18-.79,5,5,0,0,1-1.49-2.38,13,13,0,0,1-.52-4,11.45,11.45,0,0,1,.55-3.79,5,5,0,0,1,1.6-2.38,3.85,3.85,0,0,1,2.45-.82,3.49,3.49,0,0,1,1.86.47,3.43,3.43,0,0,1,1.25,1.51,7.14,7.14,0,0,1,.61,2.56h12.52a15.22,15.22,0,0,0-2-7.74,13.23,13.23,0,0,0-5.61-5.13,19.18,19.18,0,0,0-8.59-1.8,18.93,18.93,0,0,0-9.06,2.07,14.39,14.39,0,0,0-6,5.93,18.65,18.65,0,0,0-2.13,9.12,19.72,19.72,0,0,0,2,9.14,13.59,13.59,0,0,0,5.79,5.88,18.83,18.83,0,0,0,9,2,20,20,0,0,0,8.65-1.75A13.89,13.89,0,0,0,399.7,134.55Z"/><path class="cls-1" d="M421.69,121c.41-.44.79-.83,1.13-1.16a9.69,9.69,0,0,1,2.07-1.54,4.42,4.42,0,0,1,2.1-.53,2.74,2.74,0,0,1,1.54.41,2.17,2.17,0,0,1,.87,1.17,5.33,5.33,0,0,1,.27,1.8v19.45h12.57v-21a16.08,16.08,0,0,0-1.28-6.7,9.3,9.3,0,0,0-3.81-4.28,12.21,12.21,0,0,0-6.26-1.48,12.52,12.52,0,0,0-4.19.67,12.9,12.9,0,0,0-3.73,2.09c-.43.35-.86.74-1.28,1.15V97.43H409.11v43.15h12.58Z"/><path class="cls-1" d="M466.9,139.06a9.55,9.55,0,0,0,1-.92l.2,2.44h12.29v-21.2a11,11,0,0,0-2-6.52,12.51,12.51,0,0,0-5.5-4.28,21,21,0,0,0-8.18-1.48,24.46,24.46,0,0,0-8.5,1.34,12.58,12.58,0,0,0-5.62,3.84,11.1,11.1,0,0,0-2.36,6h12.05a3.66,3.66,0,0,1,.61-1.46,2.6,2.6,0,0,1,1.26-.87,6,6,0,0,1,2-.29,4.77,4.77,0,0,1,1.92.35,2.64,2.64,0,0,1,1.25,1,3,3,0,0,1,.44,1.63v1.51h-5a18.6,18.6,0,0,0-7.4,1.34,10.14,10.14,0,0,0-4.68,3.84,10.77,10.77,0,0,0-1.61,5.94,9.85,9.85,0,0,0,1.37,5.18,9.36,9.36,0,0,0,3.79,3.53,11.44,11.44,0,0,0,5.33,1.25,14.34,14.34,0,0,0,4.16-.56A9.11,9.11,0,0,0,466.9,139.06Zm-5-7.27a1.84,1.84,0,0,1-.84-.67,1.75,1.75,0,0,1-.29-1,1.64,1.64,0,0,1,.29-1,2.06,2.06,0,0,1,.81-.7,2.8,2.8,0,0,1,1.29-.26l4.6-.15v2.29a5,5,0,0,1-1.58,1.12,6.9,6.9,0,0,1-2.91.58A3.67,3.67,0,0,1,461.89,131.79Z"/><path class="cls-1" d="M493.07,130.56h-3.66v10H511.3v-10h-5.65V117.81h6.87v-10h-6.87v-2.62a3.76,3.76,0,0,1,.44-1.84,3.11,3.11,0,0,1,1.22-1.22,3.7,3.7,0,0,1,1.83-.44h7.75v-10h-10a15.2,15.2,0,0,0-7.22,1.66,11.82,11.82,0,0,0-4.89,4.74,14.25,14.25,0,0,0-1.75,7.11v2.62h-5.7v10h5.7Z"/><path class="cls-1" d="M525.2,128.06a14.25,14.25,0,0,0,1.58,7.05,9.66,9.66,0,0,0,4.42,4.13,15.64,15.64,0,0,0,6.7,1.34h11.41v-10H542.9a18.63,18.63,0,0,1-3-.17,2.5,2.5,0,0,1-1.58-.93,4.13,4.13,0,0,1-.58-2.45v-9.2h7.57v-10h-7.57V96.33l-12.52,5v6.47h-5.7v10h5.7Z"/><path class="cls-1" d="M578.56,139.91a11.12,11.12,0,0,0,5.12-3.93,10.41,10.41,0,0,0,1.78-6.06,8.79,8.79,0,0,0-2-6.11,10.19,10.19,0,0,0-4.55-3,44.08,44.08,0,0,0-6.43-1.4c-1.13-.19-2.06-.37-2.79-.52a6.09,6.09,0,0,1-1.75-.61,1.18,1.18,0,0,1-.64-1.08,1.2,1.2,0,0,1,.32-.79,2.25,2.25,0,0,1,.93-.61,4.12,4.12,0,0,1,1.43-.23,4.72,4.72,0,0,1,2.65.64,2.36,2.36,0,0,1,1.07,1.81h11a10.51,10.51,0,0,0-2-5.74,11.78,11.78,0,0,0-5-3.84,19.2,19.2,0,0,0-7.57-1.37,20.4,20.4,0,0,0-7.8,1.37,11.39,11.39,0,0,0-5.1,3.87,9.64,9.64,0,0,0-1.77,5.71,8.38,8.38,0,0,0,1.86,5.76,10,10,0,0,0,4.37,2.94,41.68,41.68,0,0,0,6.23,1.48c1.36.24,2.41.45,3.14.65a5.52,5.52,0,0,1,1.81.78,1.5,1.5,0,0,1,.7,1.25,1.31,1.31,0,0,1-.44,1,2.87,2.87,0,0,1-1.19.64,5.61,5.61,0,0,1-1.69.24,7.8,7.8,0,0,1-2.48-.35,3.31,3.31,0,0,1-1.54-1,2.52,2.52,0,0,1-.52-1.6h-11a9.82,9.82,0,0,0,2,6.14,12.26,12.26,0,0,0,5.59,4,23.46,23.46,0,0,0,8.33,1.37A20.84,20.84,0,0,0,578.56,139.91Z"/><polygon class="cls-1" points="621.97 122.94 621.39 129.87 620.58 122.94 617.9 107.8 608.23 107.8 605.96 123.17 605.15 129.75 604.62 123.17 602.29 107.8 590.94 107.8 597 140.58 609.92 140.58 612.43 125.79 613.01 118.28 613.53 125.79 616.03 140.58 629.14 140.58 635.08 107.8 624.3 107.8 621.97 122.94"/><path class="cls-1" d="M667.25,109.43a18.83,18.83,0,0,0-9.78-2.33,19.52,19.52,0,0,0-9.28,2.09,14.84,14.84,0,0,0-6.09,6,18.29,18.29,0,0,0-2.15,9.06,18.9,18.9,0,0,0,2.09,9.14,14.18,14.18,0,0,0,6,5.88,19.74,19.74,0,0,0,9.26,2,22.38,22.38,0,0,0,8.44-1.49,13.59,13.59,0,0,0,5.82-4.25,11.83,11.83,0,0,0,2.45-6.49H661.66a2,2,0,0,1-.72,1.22,4.61,4.61,0,0,1-1.46.82,5.47,5.47,0,0,1-1.77.29,5.72,5.72,0,0,1-3.09-.73,4.22,4.22,0,0,1-1.72-2.18,8.56,8.56,0,0,1-.44-1.87h21.61a22.41,22.41,0,0,0-1.17-10.48A13.29,13.29,0,0,0,667.25,109.43Zm-14.33,9.94a5.2,5.2,0,0,1,1.55-2.61,4.9,4.9,0,0,1,3.18-.93,3.6,3.6,0,0,1,3.17,1.75,3.79,3.79,0,0,1,.55,1.75Z"/><path class="cls-1" d="M708.52,108.64A12.43,12.43,0,0,0,702,107.1a10,10,0,0,0-4,.73,10.16,10.16,0,0,0-3.09,2c-.36.34-.75.74-1.15,1.18l-.22-3.22H681.24v32.78h12.58V120.31q.42-.51.81-.93a7.32,7.32,0,0,1,1.78-1.45,3.41,3.41,0,0,1,1.66-.47,2.3,2.3,0,0,1,2.09,1,5.65,5.65,0,0,1,.64,3v4.72h12.58v-4.72a23.76,23.76,0,0,0-1.17-8.15A8.82,8.82,0,0,0,708.52,108.64Z"/><polygon class="cls-1" points="743.7 118.03 754.08 107.8 739.17 107.8 737.19 110.01 730.84 118.1 731.89 108.55 731.89 97.49 719.32 97.49 719.32 140.58 731.89 140.58 731.89 129.69 734.75 126.87 741.09 140.58 754.95 140.58 743.7 118.03"/><polygon class="cls-1" points="114.85 176.81 116.43 190.72 106.64 165.16 91.68 165.16 91.68 205.8 104.2 205.8 104.2 194.1 102.63 181.23 112.47 205.8 127.43 205.8 127.43 165.16 114.85 165.16 114.85 176.81"/><path class="cls-1" d="M157.74,173.81a21,21,0,0,0-8.18-1.49,24.56,24.56,0,0,0-8.51,1.34,12.7,12.7,0,0,0-5.61,3.85,11,11,0,0,0-2.36,6h12a3.61,3.61,0,0,1,.61-1.45,2.65,2.65,0,0,1,1.25-.88,6.08,6.08,0,0,1,2-.29,5,5,0,0,1,1.93.35,2.64,2.64,0,0,1,1.25,1.05,3,3,0,0,1,.43,1.63v1.51h-5a18.56,18.56,0,0,0-7.4,1.34,10.25,10.25,0,0,0-4.69,3.85,10.85,10.85,0,0,0-1.6,5.94,9.87,9.87,0,0,0,1.37,5.18,9.33,9.33,0,0,0,3.79,3.52,11.43,11.43,0,0,0,5.32,1.25,14.43,14.43,0,0,0,4.17-.55,9.28,9.28,0,0,0,3.2-1.66,9.65,9.65,0,0,0,1-.93l.2,2.44h12.29V184.61a11,11,0,0,0-2-6.52A12.44,12.44,0,0,0,157.74,173.81Zm-5.16,21.74a4.85,4.85,0,0,1-1.57,1.11,6.9,6.9,0,0,1-2.91.58,3.47,3.47,0,0,1-1.37-.23,1.78,1.78,0,0,1-.84-.67,1.75,1.75,0,0,1-.29-1,1.64,1.64,0,0,1,.29-1,2.07,2.07,0,0,1,.81-.7,2.92,2.92,0,0,1,1.28-.26l4.6-.15Z"/><path class="cls-1" d="M191.07,194.62a3.66,3.66,0,0,1-1.48,1.49,4.42,4.42,0,0,1-2.1.49,3.35,3.35,0,0,1-2.18-.78,5,5,0,0,1-1.49-2.39,13,13,0,0,1-.52-4,11.42,11.42,0,0,1,.55-3.78,5,5,0,0,1,1.6-2.39,3.91,3.91,0,0,1,2.45-.82,3.12,3.12,0,0,1,3.11,2,7.19,7.19,0,0,1,.61,2.57h12.52a15.26,15.26,0,0,0-2-7.75,13.2,13.2,0,0,0-5.61-5.12,19.18,19.18,0,0,0-8.59-1.81,18.93,18.93,0,0,0-9.06,2.07,14.47,14.47,0,0,0-6,5.94,18.61,18.61,0,0,0-2.13,9.11,19.72,19.72,0,0,0,2,9.14,13.48,13.48,0,0,0,5.79,5.88,18.83,18.83,0,0,0,9,2,20.14,20.14,0,0,0,8.65-1.74,14,14,0,0,0,5.82-5,15,15,0,0,0,2.36-7.54H191.8A6.53,6.53,0,0,1,191.07,194.62Z"/><path class="cls-1" d="M238.65,173.81a12.19,12.19,0,0,0-6.26-1.49,12.83,12.83,0,0,0-4.19.67,13.07,13.07,0,0,0-3.73,2.1,14.92,14.92,0,0,0-1.28,1.15V162.66H210.61V205.8h12.58V186.21c.41-.45.79-.84,1.14-1.16a9.48,9.48,0,0,1,2.06-1.55,4.41,4.41,0,0,1,2.1-.52,2.71,2.71,0,0,1,1.54.41,2.25,2.25,0,0,1,.88,1.16,5.72,5.72,0,0,1,.26,1.81V205.8h12.58v-21a15.84,15.84,0,0,0-1.29-6.69A9.25,9.25,0,0,0,238.65,173.81Z"/><path class="cls-1" d="M278.92,173.81a12.16,12.16,0,0,0-6.26-1.49,12,12,0,0,0-7.91,2.77,13.55,13.55,0,0,0-1.28,1.15V162.66H250.89V205.8h12.58V186.21c.41-.45.79-.84,1.13-1.16a9.76,9.76,0,0,1,2.07-1.55,4.4,4.4,0,0,1,2.09-.52,2.77,2.77,0,0,1,1.55.41,2.24,2.24,0,0,1,.87,1.16,5.72,5.72,0,0,1,.26,1.81V205.8H284v-21a16,16,0,0,0-1.28-6.69A9.33,9.33,0,0,0,278.92,173.81Z"/><path class="cls-1" d="M314,173.81a21,21,0,0,0-8.18-1.49,24.56,24.56,0,0,0-8.51,1.34,12.65,12.65,0,0,0-5.61,3.85,11,11,0,0,0-2.36,6h12.05a3.61,3.61,0,0,1,.61-1.45,2.65,2.65,0,0,1,1.25-.88,6.08,6.08,0,0,1,2-.29,4.88,4.88,0,0,1,1.92.35,2.62,2.62,0,0,1,1.26,1.05,3,3,0,0,1,.43,1.63v1.51h-5a18.56,18.56,0,0,0-7.4,1.34,10.25,10.25,0,0,0-4.69,3.85,10.85,10.85,0,0,0-1.6,5.94,9.87,9.87,0,0,0,1.37,5.18,9.27,9.27,0,0,0,3.79,3.52,11.43,11.43,0,0,0,5.32,1.25,14.43,14.43,0,0,0,4.17-.55,9.28,9.28,0,0,0,3.2-1.66,10.8,10.8,0,0,0,1-.93l.2,2.44h12.29V184.61a11,11,0,0,0-2-6.52A12.49,12.49,0,0,0,314,173.81Zm-5.16,21.74a4.85,4.85,0,0,1-1.57,1.11,6.9,6.9,0,0,1-2.91.58A3.47,3.47,0,0,1,303,197a1.78,1.78,0,0,1-.84-.67,1.75,1.75,0,0,1-.29-1,1.64,1.64,0,0,1,.29-1,2.07,2.07,0,0,1,.81-.7,2.92,2.92,0,0,1,1.28-.26l4.6-.15Z"/><polygon class="cls-1" points="345.5 162.72 342.36 162.72 332.93 162.72 329.73 162.72 329.73 172.73 332.93 172.73 332.93 195.79 327.98 195.79 327.98 205.8 332.93 205.8 345.5 205.8 350.51 205.8 350.51 195.79 345.5 195.79 345.5 162.72"/><path class="cls-1" d="M377.1,195.79a18.52,18.52,0,0,1-3-.18,2.39,2.39,0,0,1-1.57-.93,4,4,0,0,1-.58-2.44V183h7.57V173h-7.57V161.55l-12.52,5V173h-5.71v10h5.71v10.24a14.2,14.2,0,0,0,1.57,7.05,9.68,9.68,0,0,0,4.43,4.13,15.48,15.48,0,0,0,6.69,1.34h11.42v-10H377.1Z"/><rect class="cls-1" x="395.15" y="160.1" width="12.69" height="9.78"/><polygon class="cls-1" points="407.79 173.02 404.58 173.02 395.21 173.02 392.01 173.02 392.01 183.04 395.21 183.04 395.21 195.79 389.97 195.79 389.97 205.8 395.21 205.8 407.79 205.8 412.15 205.8 412.15 195.79 407.79 195.79 407.79 173.02"/><path class="cls-1" d="M440.58,175.35a10.43,10.43,0,0,0-3.61-2.24,12.15,12.15,0,0,0-4.25-.79,14.07,14.07,0,0,0-7.46,2,13.1,13.1,0,0,0-4.95,5.48,18.38,18.38,0,0,0-1.74,8.24,17.41,17.41,0,0,0,1.74,7.94,12.78,12.78,0,0,0,4.95,5.36,14.41,14.41,0,0,0,7.46,1.89,12.27,12.27,0,0,0,4.33-.75,8.52,8.52,0,0,0,3.41-2.33v2.68a4.79,4.79,0,0,1-1.28,3.61,5.06,5.06,0,0,1-3.61,1.22,5.94,5.94,0,0,1-3-.64,2.52,2.52,0,0,1-1.22-1.92h-13a11.18,11.18,0,0,0,2.5,6.55,13.45,13.45,0,0,0,5.79,4,24.22,24.22,0,0,0,8.3,1.31,26.85,26.85,0,0,0,9.9-1.63,13,13,0,0,0,6.17-4.78,13.51,13.51,0,0,0,2.1-7.68V173H440.75Zm-.12,15a5.5,5.5,0,0,1-1,2,4.63,4.63,0,0,1-1.6,1.28,4.43,4.43,0,0,1-1.95.44,4.37,4.37,0,0,1-2.62-.79,4.88,4.88,0,0,1-1.69-2.21,8.8,8.8,0,0,1-.58-3.35,8.92,8.92,0,0,1,.58-3.4,5,5,0,0,1,1.69-2.22,4.54,4.54,0,0,1,2.68-.78,4.29,4.29,0,0,1,1.89.43,4.78,4.78,0,0,1,1.6,1.29,5.57,5.57,0,0,1,1,2Z"/><polygon class="cls-1" points="494.74 173.02 479.83 173.02 477.85 175.24 471.5 183.33 472.55 173.78 472.55 162.72 459.98 162.72 459.98 205.8 472.55 205.8 472.55 194.91 475.41 192.1 481.75 205.8 495.61 205.8 484.36 183.26 494.74 173.02"/><path class="cls-1" d="M524.8,174.65a18.83,18.83,0,0,0-9.78-2.33,19.42,19.42,0,0,0-9.29,2.1,14.84,14.84,0,0,0-6.09,6,18.38,18.38,0,0,0-2.15,9.05,18.79,18.79,0,0,0,2.1,9.14,14,14,0,0,0,6,5.88,19.74,19.74,0,0,0,9.26,2,22.35,22.35,0,0,0,8.44-1.48,13.76,13.76,0,0,0,5.83-4.25,11.85,11.85,0,0,0,2.44-6.5H519.21a2,2,0,0,1-.73,1.23,4.36,4.36,0,0,1-1.45.81,5.32,5.32,0,0,1-1.78.29,5.84,5.84,0,0,1-3.09-.72,4.27,4.27,0,0,1-1.71-2.19,7.94,7.94,0,0,1-.44-1.86h21.6a22.41,22.41,0,0,0-1.16-10.48A13.41,13.41,0,0,0,524.8,174.65Zm-14.33,9.94A5,5,0,0,1,512,182a4.85,4.85,0,0,1,3.17-.93,3.67,3.67,0,0,1,1.86.46,3.57,3.57,0,0,1,1.31,1.28,3.84,3.84,0,0,1,.56,1.75Z"/><rect class="cls-1" x="543" y="160.1" width="12.69" height="9.78"/><polygon class="cls-1" points="555.64 173.02 552.44 173.02 543.06 173.02 539.86 173.02 539.86 183.04 543.06 183.04 543.06 195.79 537.82 195.79 537.82 205.8 543.06 205.8 555.64 205.8 560.01 205.8 560.01 195.79 555.64 195.79 555.64 173.02"/><path class="cls-1" d="M588.6,195.79a18.52,18.52,0,0,1-3-.18,2.37,2.37,0,0,1-1.57-.93,4,4,0,0,1-.59-2.44V183H591V173h-7.57V161.55l-12.52,5V173h-5.7v10h5.7v10.24a14.2,14.2,0,0,0,1.58,7.05,9.7,9.7,0,0,0,4.42,4.13,15.53,15.53,0,0,0,6.7,1.34H595v-10h-6.4Z"/><path class="cls-2" d="M655.81,204.57a13.8,13.8,0,0,0,5.73-5.49,16.24,16.24,0,0,0,2-8.16v-27h-6.48v27a11.49,11.49,0,0,1-1.2,5.37,8.35,8.35,0,0,1-3.42,3.54,10.6,10.6,0,0,1-5.22,1.23,10.3,10.3,0,0,1-5.13-1.23,8.78,8.78,0,0,1-3.45-3.54,11,11,0,0,1-1.26-5.37v-27H631v27a16.24,16.24,0,0,0,2,8.16,13.84,13.84,0,0,0,5.7,5.49,19.79,19.79,0,0,0,17.13,0Z"/><polygon class="cls-2" points="700.08 205.8 708 205.8 708 163.92 701.82 163.92 701.82 184.56 702.36 197.52 684.96 163.92 676.98 163.92 676.98 205.8 683.1 205.8 683.1 185.1 682.62 172.56 700.08 205.8"/><path class="cls-2" d="M744.91,203.22a17.39,17.39,0,0,0,6.9-7.35,24.21,24.21,0,0,0,2.43-11.13,23.7,23.7,0,0,0-2.43-11,17.28,17.28,0,0,0-6.9-7.26,20.89,20.89,0,0,0-10.53-2.55h-13V205.8h13A20.7,20.7,0,0,0,744.91,203.22Zm-17.07-33.9h6.54a12.78,12.78,0,0,1,7,1.89,12.11,12.11,0,0,1,4.59,5.37,19.48,19.48,0,0,1,1.59,8.16,20,20,0,0,1-1.59,8.31,12.28,12.28,0,0,1-4.59,5.43,12.63,12.63,0,0,1-7,1.92h-6.54Z"/><path class="cls-2" d="M391.57,233.15h-15.9v5.4h15.9v24.72a7.85,7.85,0,0,1-.69,3.42,4.91,4.91,0,0,1-2,2.19,6.17,6.17,0,0,1-3.15.75h-15V275h14.94a14.6,14.6,0,0,0,6.75-1.41,9.32,9.32,0,0,0,4.11-4.08,14.19,14.19,0,0,0,1.38-6.57V233.15h-6.36Z"/><polygon class="cls-2" points="418.77 256.07 435.03 256.07 435.03 250.61 418.77 250.61 418.77 238.55 442.41 238.55 442.41 233.15 412.35 233.15 412.35 275.03 442.65 275.03 442.65 269.63 418.77 269.63 418.77 256.07"/><polygon class="cls-2" points="451.95 238.55 465.45 238.55 465.45 275.03 471.87 275.03 471.87 238.55 485.37 238.55 485.37 233.15 451.95 233.15 451.95 238.55"/><polygon class="cls-2" points="494.92 238.55 509.86 238.55 518.56 238.61 513.16 245.15 494.08 270.47 494.08 275.03 526.42 275.03 526.42 269.63 510.7 269.63 502 269.57 507.34 263.03 526.42 237.71 526.42 233.15 494.92 233.15 494.92 238.55"/><polygon class="cls-2" points="535.95 238.55 549.45 238.55 549.45 275.03 555.87 275.03 555.87 238.55 569.37 238.55 569.37 233.15 535.95 233.15 535.95 238.55"/><path class="cls-2" d="M613.57,233.15,600.67,275h6.42l3.25-10.5h15.6l3.23,10.5h6.54l-13-41.88ZM612,259.07l3.63-11.7,2.52-9.24,2.46,9.18,3.61,11.76Z"/><polygon class="cls-2" points="652.66 233.15 646.24 233.15 646.24 275.03 674.56 275.03 674.56 269.63 652.66 269.63 652.66 233.15"/><polygon class="cls-2" points="691.51 233.15 685.09 233.15 685.09 275.03 713.41 275.03 713.41 269.63 691.51 269.63 691.51 233.15"/><polygon class="cls-2" points="730.36 256.07 746.62 256.07 746.62 250.61 730.36 250.61 730.36 238.55 754 238.55 754 233.15 723.94 233.15 723.94 275.03 754.24 275.03 754.24 269.63 730.36 269.63 730.36 256.07"/></svg>