<svg xmlns="http://www.w3.org/2000/svg" xmlns:xlink="http://www.w3.org/1999/xlink" version="1.1" id="Ebene_1" x="0px" y="0px" style="enable-background:new 0 0 845.9 366.7;" xml:space="preserve" viewBox="125.1 93.8 595.65 192.2">
<style type="text/css">
	.st0{fill:#19486A;}
	.st1{fill:#DD1367;}
</style>
<g>
	<g>
		<path class="st0" d="M321.8,185.4c-1.8-0.6-4.1-1.1-6.8-1.5c-1.2-0.2-2.2-0.4-3-0.6c-0.8-0.2-1.4-0.4-1.8-0.6    c-0.5-0.3-0.7-0.6-0.7-1.1c0-0.3,0.1-0.6,0.3-0.8c0.2-0.3,0.6-0.5,1-0.6c0.4-0.2,0.9-0.2,1.5-0.2c1.2,0,2.1,0.2,2.8,0.7    c0.7,0.5,1.1,1.1,1.1,1.9h11.6c-0.1-2.3-0.8-4.3-2.1-6.1c-1.3-1.7-3-3.1-5.3-4.1c-2.3-1-4.9-1.4-8-1.4c-3.2,0-5.9,0.5-8.3,1.4    c-2.3,1-4.1,2.3-5.4,4.1c-1.3,1.8-1.9,3.8-1.9,6c0,2.6,0.7,4.6,2,6.1c1.3,1.5,2.9,2.5,4.6,3.1c1.8,0.6,4,1.1,6.6,1.6    c1.4,0.2,2.5,0.5,3.3,0.7c0.8,0.2,1.4,0.5,1.9,0.8c0.5,0.3,0.7,0.8,0.7,1.3c0,0.4-0.2,0.8-0.5,1c-0.3,0.3-0.7,0.5-1.3,0.7    c-0.5,0.2-1.1,0.2-1.8,0.2c-1,0-1.9-0.1-2.6-0.4c-0.7-0.2-1.3-0.6-1.6-1.1c-0.4-0.5-0.6-1-0.6-1.7h-11.6c0,2.5,0.7,4.7,2.1,6.5    c1.4,1.8,3.4,3.2,5.9,4.2c2.5,1,5.5,1.4,8.8,1.4c3.2,0,6-0.5,8.3-1.4c2.4-1,4.2-2.4,5.4-4.2c1.3-1.8,1.9-3.9,1.9-6.4    c0-2.8-0.7-4.9-2.1-6.5C325.2,187.1,323.6,186,321.8,185.4z"/>
		<path class="st0" d="M341.1,205.5c1.8,1,4,1.6,6.6,1.6c1.6,0,3-0.2,4.4-0.7c1.4-0.5,2.7-1.2,4-2.2c0.5-0.4,1-0.8,1.4-1.3l0.2,3.5    h13v-34.7h-13.3v20.7c-0.5,0.5-0.9,0.9-1.2,1.3c-0.7,0.7-1.5,1.3-2.2,1.6c-0.7,0.3-1.4,0.5-2.2,0.5c-0.7,0-1.2-0.1-1.6-0.4    c-0.4-0.3-0.7-0.7-0.9-1.2c-0.2-0.5-0.3-1.2-0.3-1.9v-20.6h-13.3v22.3c0,2.8,0.5,5.1,1.4,7.1C338,202.9,339.3,204.4,341.1,205.5z"/>
		<path class="st0" d="M403.5,185.4c-1.8-0.6-4.1-1.1-6.8-1.5c-1.2-0.2-2.2-0.4-3-0.6c-0.8-0.2-1.4-0.4-1.8-0.6    c-0.5-0.3-0.7-0.6-0.7-1.1c0-0.3,0.1-0.6,0.3-0.8c0.2-0.3,0.6-0.5,1-0.6c0.4-0.2,0.9-0.2,1.5-0.2c1.2,0,2.1,0.2,2.8,0.7    c0.7,0.5,1.1,1.1,1.1,1.9h11.6c-0.1-2.3-0.8-4.3-2.1-6.1c-1.3-1.7-3-3.1-5.3-4.1c-2.3-1-4.9-1.4-8-1.4c-3.2,0-5.9,0.5-8.3,1.4    c-2.3,1-4.1,2.3-5.4,4.1c-1.3,1.8-1.9,3.8-1.9,6c0,2.6,0.7,4.6,2,6.1c1.3,1.5,2.9,2.5,4.6,3.1c1.8,0.6,4,1.1,6.6,1.6    c1.4,0.2,2.5,0.5,3.3,0.7c0.8,0.2,1.4,0.5,1.9,0.8c0.5,0.3,0.7,0.8,0.7,1.3c0,0.4-0.2,0.8-0.5,1c-0.3,0.3-0.7,0.5-1.3,0.7    c-0.5,0.2-1.1,0.2-1.8,0.2c-1,0-1.9-0.1-2.6-0.4c-0.7-0.2-1.3-0.6-1.6-1.1c-0.4-0.5-0.6-1-0.6-1.7h-11.6c0,2.5,0.7,4.7,2.1,6.5    c1.4,1.8,3.4,3.2,5.9,4.2c2.5,1,5.5,1.4,8.8,1.4c3.2,0,6-0.5,8.3-1.4c2.4-1,4.2-2.4,5.4-4.2c1.3-1.8,1.9-3.9,1.9-6.4    c0-2.8-0.7-4.9-2.1-6.5C406.9,187.1,405.3,186,403.5,185.4z"/>
		<path class="st0" d="M441,195.7c-1.4,0-2.5-0.1-3.2-0.2c-0.7-0.1-1.3-0.5-1.7-1c-0.4-0.5-0.6-1.4-0.6-2.6v-9.7h8v-10.6h-8v-12.1    l-13.2,5.3v6.8h-6v10.6h6v10.8c0,3,0.6,5.5,1.7,7.5c1.1,2,2.7,3.4,4.7,4.4c2,0.9,4.4,1.4,7.1,1.4h12.1v-10.6h-6.6H441z"/>
		<path class="st0" d="M467.9,181.2c0.3-0.4,0.7-0.7,1.3-0.9c0.6-0.2,1.3-0.3,2.1-0.3c0.8,0,1.5,0.1,2,0.4c0.6,0.2,1,0.6,1.3,1.1    c0.3,0.5,0.5,1.1,0.5,1.7v1.6h-5.3c-3,0-5.6,0.5-7.8,1.4c-2.2,0.9-3.8,2.3-5,4.1c-1.1,1.8-1.7,3.9-1.7,6.3c0,2.1,0.5,3.9,1.4,5.5    c1,1.6,2.3,2.8,4,3.7c1.7,0.9,3.6,1.3,5.6,1.3c1.6,0,3.1-0.2,4.4-0.6c1.3-0.4,2.4-1,3.4-1.8c0.4-0.3,0.7-0.6,1.1-1l0.2,2.6h13    v-22.4c0-2.6-0.7-4.9-2.1-6.9c-1.4-2-3.3-3.5-5.8-4.5c-2.5-1-5.4-1.6-8.7-1.6c-3.4,0-6.4,0.5-9,1.4c-2.5,0.9-4.5,2.3-5.9,4.1    c-1.4,1.8-2.2,3.9-2.5,6.3h12.7C467.4,182.1,467.6,181.6,467.9,181.2z M475.2,195.5c-0.5,0.5-1,0.9-1.7,1.2    c-0.9,0.4-1.9,0.6-3.1,0.6c-0.6,0-1.1-0.1-1.4-0.2c-0.4-0.2-0.7-0.4-0.9-0.7c-0.2-0.3-0.3-0.7-0.3-1.1c0-0.4,0.1-0.7,0.3-1    c0.2-0.3,0.5-0.6,0.9-0.7c0.4-0.2,0.8-0.3,1.4-0.3l4.9-0.2V195.5z"/>
		<rect x="502.1" y="158" class="st0" width="13.4" height="10.3"/>
		<polygon class="st0" points="515.5,206.3 520.1,206.3 520.1,195.7 515.5,195.7 515.5,171.6 512.1,171.6 502.2,171.6 498.8,171.6     498.8,182.2 502.2,182.2 502.2,195.7 496.6,195.7 496.6,206.3 502.2,206.3   "/>
		<path class="st0" d="M541,185.6c0.5-0.5,0.9-0.9,1.2-1.3c0.7-0.7,1.5-1.3,2.2-1.6c0.7-0.3,1.4-0.5,2.2-0.5c0.7,0,1.2,0.1,1.6,0.4    c0.4,0.3,0.7,0.7,0.9,1.2c0.2,0.5,0.3,1.2,0.3,1.9v20.6h13.3V184c0-2.8-0.5-5.1-1.4-7.1c-0.9-1.9-2.2-3.4-4-4.5    c-1.8-1-4-1.6-6.6-1.6c-1.6,0-3,0.2-4.4,0.7c-1.4,0.5-2.7,1.2-4,2.2c-0.5,0.4-1,0.8-1.4,1.3l-0.2-3.5h-13v34.7H541V185.6z"/>
		<path class="st0" d="M582.7,181.2c0.3-0.4,0.7-0.7,1.3-0.9c0.6-0.2,1.3-0.3,2.1-0.3c0.8,0,1.5,0.1,2,0.4c0.6,0.2,1,0.6,1.3,1.1    c0.3,0.5,0.5,1.1,0.5,1.7v1.6h-5.3c-3,0-5.6,0.5-7.8,1.4c-2.2,0.9-3.8,2.3-5,4.1c-1.1,1.8-1.7,3.9-1.7,6.3c0,2.1,0.5,3.9,1.4,5.5    c1,1.6,2.3,2.8,4,3.7c1.7,0.9,3.6,1.3,5.6,1.3c1.6,0,3.1-0.2,4.4-0.6c1.3-0.4,2.4-1,3.4-1.8c0.4-0.3,0.7-0.6,1.1-1l0.2,2.6h13    v-22.4c0-2.6-0.7-4.9-2.1-6.9c-1.4-2-3.3-3.5-5.8-4.5c-2.5-1-5.4-1.6-8.7-1.6c-3.5,0-6.4,0.5-9,1.4c-2.5,0.9-4.5,2.3-5.9,4.1    c-1.4,1.8-2.2,3.9-2.5,6.3h12.7C582.2,182.1,582.4,181.6,582.7,181.2z M590,195.5c-0.5,0.5-1,0.9-1.7,1.2    c-0.9,0.4-1.9,0.6-3.1,0.6c-0.6,0-1.1-0.1-1.4-0.2c-0.4-0.2-0.7-0.4-0.9-0.7c-0.2-0.3-0.3-0.7-0.3-1.1c0-0.4,0.1-0.7,0.3-1    c0.2-0.3,0.5-0.6,0.9-0.7c0.4-0.2,0.8-0.3,1.4-0.3l4.9-0.2V195.5z"/>
		<path class="st0" d="M640.6,173.2c-2.2-1.5-4.7-2.3-7.5-2.3c-1.6,0-3.2,0.3-4.7,0.9c-1.5,0.6-2.9,1.4-4.1,2.5v-13.5H611v45.6h13    l0.2-2.8c1.2,1.2,2.6,2,4.1,2.6c1.5,0.6,3.2,0.9,4.8,0.9c2.8,0,5.3-0.8,7.5-2.3c2.2-1.5,3.9-3.7,5.1-6.4c1.2-2.7,1.8-5.9,1.8-9.4    c0-3.5-0.6-6.7-1.8-9.4C644.5,176.8,642.8,174.7,640.6,173.2z M633.6,192.8c-0.5,1.1-1.1,2-1.8,2.6c-0.8,0.6-1.7,0.9-2.8,0.9    c-1.1,0-2-0.4-2.9-1.1c-0.8-0.7-1.4-1.7-1.8-2.9v-6.7c0.4-1.2,1-2.2,1.8-2.9c0.8-0.7,1.8-1,2.9-1c1.1,0,2,0.3,2.8,0.9    c0.8,0.6,1.4,1.4,1.8,2.6c0.5,1.1,0.7,2.4,0.7,3.8C634.2,190.4,634,191.7,633.6,192.8z"/>
		<polygon class="st0" points="672.5,206.3 677.8,206.3 677.8,195.7 672.5,195.7 672.5,160.7 669.2,160.7 659.2,160.7 655.8,160.7     655.8,171.3 659.2,171.3 659.2,195.7 654,195.7 654,206.3 659.2,206.3   "/>
		<path class="st0" d="M719.4,180.4c-1.2-3.1-3.2-5.4-6-7.1c-2.8-1.6-6.2-2.5-10.3-2.5c-3.8,0-7.1,0.7-9.8,2.2    c-2.8,1.5-4.9,3.6-6.4,6.3c-1.5,2.7-2.3,5.9-2.3,9.6c0,3.7,0.7,7,2.2,9.7s3.6,4.8,6.3,6.2c2.8,1.4,6,2.2,9.8,2.2    c3.4,0,6.3-0.5,8.9-1.6c2.6-1,4.6-2.5,6.2-4.5c1.5-1.9,2.4-4.2,2.6-6.9h-13.1c-0.1,0.5-0.3,0.9-0.8,1.3c-0.4,0.4-0.9,0.7-1.5,0.9    c-0.6,0.2-1.2,0.3-1.9,0.3c-1.4,0-2.4-0.3-3.3-0.8c-0.8-0.5-1.4-1.3-1.8-2.3c-0.2-0.6-0.4-1.2-0.5-2h22.9    C721,187.2,720.6,183.5,719.4,180.4z M698.3,183.9c0.4-1.2,0.9-2.1,1.6-2.8c0.8-0.7,1.9-1,3.4-1c0.7,0,1.4,0.2,2,0.5    c0.6,0.3,1,0.8,1.4,1.4c0.3,0.6,0.5,1.2,0.6,1.8L698.3,183.9z"/>
		<path class="st0" d="M315,243c-0.8-0.7-1.7-1.3-2.6-1.8c-0.9-0.5-1.9-0.9-3-1.2c-1-0.3-2.1-0.4-3.2-0.4c-2.8,0-5.3,0.8-7.5,2.3    c-2.2,1.5-3.9,3.6-5.1,6.4c-1.2,2.7-1.8,5.9-1.8,9.4c0,3.5,0.6,6.7,1.8,9.4c1.2,2.7,2.9,4.9,5.1,6.4c2.2,1.5,4.6,2.3,7.5,2.3    c1.7,0,3.3-0.3,4.9-0.9c1.6-0.6,2.9-1.5,4.1-2.6l0.2,2.8h13v-45.6H315V243z M315,261c-0.4,1.2-1,2.2-1.9,2.9    c-0.8,0.7-1.8,1.1-2.8,1.1c-1.1,0-2-0.3-2.8-0.9c-0.8-0.6-1.4-1.5-1.8-2.6c-0.5-1.1-0.7-2.4-0.7-3.8c0-1.4,0.2-2.7,0.7-3.8    c0.5-1.1,1.1-2,1.8-2.6c0.8-0.6,1.7-0.9,2.8-0.9c0.7,0,1.3,0.2,1.9,0.5c0.6,0.3,1.1,0.8,1.6,1.4c0.5,0.6,0.9,1.3,1.1,2.1V261z"/>
		<path class="st0" d="M361.1,242.1c-2.8-1.6-6.2-2.5-10.3-2.5c-3.8,0-7.1,0.7-9.8,2.2c-2.8,1.5-4.9,3.6-6.4,6.3    c-1.5,2.7-2.3,5.9-2.3,9.6c0,3.7,0.7,7,2.2,9.7c1.5,2.7,3.6,4.8,6.3,6.2c2.8,1.4,6,2.2,9.8,2.2c3.4,0,6.3-0.5,8.9-1.6    c2.6-1,4.6-2.5,6.2-4.5c1.5-1.9,2.4-4.2,2.6-6.9h-13.1c-0.1,0.5-0.3,0.9-0.8,1.3c-0.4,0.4-0.9,0.7-1.5,0.9    c-0.6,0.2-1.2,0.3-1.9,0.3c-1.4,0-2.4-0.3-3.3-0.8c-0.8-0.5-1.4-1.3-1.8-2.3c-0.2-0.6-0.4-1.2-0.5-2h22.9c0.4-4.3,0-8-1.2-11.1    C365.8,246.1,363.8,243.7,361.1,242.1z M345.9,252.6c0.4-1.2,0.9-2.1,1.6-2.8c0.8-0.7,1.9-1,3.4-1c0.7,0,1.4,0.2,2,0.5    c0.6,0.3,1,0.8,1.4,1.4c0.3,0.6,0.5,1.2,0.6,1.8L345.9,252.6z"/>
		<polygon class="st0" points="391.8,254.5 390,263.9 388.4,254.5 384.6,240.4 370.5,240.4 382.1,275 397.7,275 409.3,240.4     395.5,240.4   "/>
		<path class="st0" d="M440.2,242.1c-2.8-1.6-6.2-2.5-10.3-2.5c-3.8,0-7.1,0.7-9.8,2.2c-2.8,1.5-4.9,3.6-6.4,6.3    c-1.5,2.7-2.3,5.9-2.3,9.6c0,3.7,0.7,7,2.2,9.7c1.5,2.7,3.6,4.8,6.3,6.2c2.8,1.4,6,2.2,9.8,2.2c3.4,0,6.3-0.5,8.9-1.6    s4.6-2.5,6.2-4.5c1.5-1.9,2.4-4.2,2.6-6.9h-13.1c-0.1,0.5-0.3,0.9-0.8,1.3c-0.4,0.4-0.9,0.7-1.5,0.9c-0.6,0.2-1.2,0.3-1.9,0.3    c-1.4,0-2.4-0.3-3.3-0.8c-0.8-0.5-1.4-1.3-1.8-2.3c-0.2-0.6-0.4-1.2-0.5-2h22.9c0.4-4.3,0-8-1.2-11.1    C445,246.1,443,243.7,440.2,242.1z M425.1,252.6c0.4-1.2,0.9-2.1,1.6-2.8c0.8-0.7,1.9-1,3.4-1c0.7,0,1.4,0.2,2,0.5    c0.6,0.3,1,0.8,1.4,1.4c0.3,0.6,0.5,1.2,0.6,1.8L425.1,252.6z"/>
		<polygon class="st0" points="470.4,229.5 467.1,229.5 457.1,229.5 453.7,229.5 453.7,240.1 457.1,240.1 457.1,264.4 451.9,264.4     451.9,275 457.1,275 470.4,275 475.7,275 475.7,264.4 470.4,264.4   "/>
		<path class="st0" d="M507.8,241.8c-2.7-1.4-5.9-2.2-9.6-2.2c-3.7,0-7,0.7-9.7,2.2c-2.7,1.4-4.8,3.5-6.3,6.3    c-1.5,2.7-2.2,6-2.2,9.7c0,3.7,0.7,6.9,2.2,9.6c1.5,2.7,3.6,4.8,6.3,6.3c2.7,1.5,6,2.2,9.7,2.2c3.7,0,6.9-0.7,9.6-2.2    c2.7-1.5,4.8-3.5,6.3-6.3c1.5-2.7,2.2-5.9,2.2-9.6c0-3.7-0.7-7-2.2-9.7C512.6,245.3,510.5,243.2,507.8,241.8z M502.4,261.7    c-0.4,1.1-1,2-1.7,2.6c-0.7,0.6-1.6,0.9-2.6,0.9c-1,0-1.9-0.3-2.6-0.9c-0.7-0.6-1.3-1.4-1.7-2.6c-0.4-1.1-0.6-2.4-0.6-4    c0-1.6,0.2-3,0.6-4.1c0.4-1.1,1-2,1.7-2.6c0.7-0.6,1.6-0.9,2.6-0.9c0.9,0,1.8,0.3,2.5,0.9c0.7,0.6,1.3,1.4,1.7,2.6    c0.4,1.1,0.6,2.5,0.6,4.1C503,259.3,502.8,260.6,502.4,261.7z"/>
		<path class="st0" d="M550,241.9c-2.2-1.5-4.8-2.3-7.6-2.3c-1.7,0-3.3,0.3-4.9,0.9c-1.6,0.6-3,1.5-4.2,2.6l-0.2-2.8h-13v45.7h13.3    v-13.7c1.2,1.1,2.6,2,4.2,2.6c1.5,0.6,3.2,0.9,4.8,0.9c2.9,0,5.4-0.8,7.6-2.3c2.2-1.5,3.9-3.7,5.1-6.4c1.2-2.8,1.8-5.9,1.8-9.4    c0-3.5-0.6-6.7-1.8-9.4C554,245.6,552.3,243.4,550,241.9z M543.1,261.5c-0.5,1.1-1.1,1.9-1.9,2.6c-0.8,0.6-1.8,0.9-2.9,0.9    s-2.1-0.4-3-1.1c-0.9-0.7-1.5-1.7-1.9-2.9v-6.7c0.2-0.8,0.6-1.5,1.1-2.1c0.5-0.6,1.1-1.1,1.7-1.4c0.7-0.3,1.3-0.5,2-0.5    c1.1,0,2.1,0.3,2.9,0.9c0.8,0.6,1.5,1.4,1.9,2.6c0.5,1.1,0.7,2.4,0.7,3.9C543.8,259.2,543.5,260.4,543.1,261.5z"/>
		<path class="st0" d="M601.2,240.9c-1.4-0.8-3.1-1.2-5.1-1.2c-2.3,0-4.2,0.5-5.9,1.6c-1.2,0.8-2.1,1.7-2.9,2.9    c-0.8-1.4-1.8-2.5-3.2-3.3c-1.4-0.8-3.1-1.2-4.9-1.2c-1.7,0-3.4,0.5-5,1.6c-1.1,0.7-2,1.6-2.7,2.7l-0.2-3.5h-11.1V275h11.5v-22.2    c0.4-0.7,0.8-1.2,1.2-1.6c0.6-0.6,1.3-0.9,2.1-0.9c0.5,0,0.9,0.1,1.2,0.3c0.4,0.2,0.6,0.5,0.8,1c0.2,0.4,0.3,0.9,0.3,1.5V275h11.4    v-22c0.4-0.7,0.8-1.3,1.3-1.7c0.6-0.6,1.3-0.9,2-0.9c0.5,0,0.9,0.1,1.2,0.3c0.3,0.2,0.6,0.5,0.8,1c0.2,0.4,0.3,0.9,0.3,1.5V275    h11.5v-23.8c0-2.6-0.4-4.8-1.3-6.5C603.7,243,602.6,241.7,601.2,240.9z"/>
		<path class="st0" d="M638.4,242.1c-2.8-1.6-6.2-2.5-10.3-2.5c-3.8,0-7.1,0.7-9.8,2.2c-2.8,1.5-4.9,3.6-6.4,6.3    c-1.5,2.7-2.3,5.9-2.3,9.6c0,3.7,0.7,7,2.2,9.7c1.5,2.7,3.6,4.8,6.3,6.2c2.8,1.4,6,2.2,9.8,2.2c3.4,0,6.3-0.5,8.9-1.6    c2.6-1,4.6-2.5,6.2-4.5c1.5-1.9,2.4-4.2,2.6-6.9h-13.1c-0.1,0.5-0.3,0.9-0.8,1.3c-0.4,0.4-0.9,0.7-1.5,0.9    c-0.6,0.2-1.2,0.3-1.9,0.3c-1.4,0-2.4-0.3-3.3-0.8c-0.8-0.5-1.4-1.3-1.8-2.3c-0.2-0.6-0.4-1.2-0.5-2h22.9c0.4-4.3,0-8-1.2-11.1    C643.2,246.1,641.2,243.7,638.4,242.1z M623.3,252.6c0.4-1.2,0.9-2.1,1.6-2.8c0.8-0.7,1.9-1,3.4-1c0.7,0,1.4,0.2,2,0.5    c0.6,0.3,1,0.8,1.4,1.4c0.3,0.6,0.5,1.2,0.6,1.8L623.3,252.6z"/>
		<path class="st0" d="M679.5,241.2c-1.8-1-4-1.6-6.6-1.6c-1.6,0-3,0.2-4.4,0.7c-1.4,0.5-2.7,1.2-4,2.2c-0.5,0.4-1,0.8-1.4,1.3    l-0.2-3.5h-13V275h13.3v-20.7c0.5-0.5,0.9-0.9,1.2-1.3c0.7-0.7,1.5-1.3,2.2-1.6c0.7-0.3,1.4-0.5,2.2-0.5c0.7,0,1.2,0.1,1.6,0.4    c0.4,0.3,0.7,0.7,0.9,1.2c0.2,0.5,0.3,1.2,0.3,1.9V275h13.3v-22.3c0-2.8-0.5-5.1-1.4-7.1C682.7,243.7,681.3,242.2,679.5,241.2z"/>
		<path class="st0" d="M713.3,264.4c-1.4,0-2.5-0.1-3.2-0.2c-0.7-0.1-1.3-0.5-1.7-1c-0.4-0.5-0.6-1.4-0.6-2.6V251h8v-10.6h-8v-12.1    l-13.2,5.3v6.8h-6V251h6v10.8c0,3,0.6,5.5,1.7,7.5s2.7,3.4,4.7,4.4c2,0.9,4.4,1.4,7.1,1.4h12.1v-10.6h-6.6H713.3z"/>
	</g>
	<path class="st1" d="M145.2,135.1c1.5-0.5,2.8-1.3,3.8-2.3c1-1,1.8-2.3,2.3-3.7c0.5-1.5,0.8-3.2,0.8-5.1V94.5h-0.5h-5.9H130v5.3   h15.7v24.4c0,1.9-0.5,3.5-1.5,4.6c-1,1.1-2.4,1.7-4.3,1.7h-14.8v5.3h14.8C141.9,135.9,143.7,135.6,145.2,135.1z"/>
	<path class="st1" d="M183.4,134c2.6,1.7,5.7,2.6,9.2,2.6c3.5,0,6.6-0.9,9.2-2.6c2.6-1.7,4.6-4.2,6.1-7.4c1.4-3.2,2.2-7,2.2-11.3   c0-4.4-0.7-8.2-2.2-11.4c-1.4-3.2-3.5-5.7-6.1-7.4c-2.6-1.7-5.7-2.6-9.2-2.6c-3.5,0-6.6,0.9-9.2,2.6c-2.6,1.7-4.7,4.2-6.1,7.4   c-1.4,3.2-2.1,7-2.1,11.4c0,4.3,0.7,8.1,2.1,11.3C178.7,129.8,180.7,132.3,183.4,134z M183.1,106.7c0.9-2.4,2.2-4.2,3.8-5.6   c1.6-1.3,3.5-2,5.7-2s4,0.7,5.7,2c1.6,1.3,2.9,3.2,3.8,5.6c0.9,2.4,1.4,5.3,1.4,8.5c0,3.3-0.5,6.1-1.4,8.5   c-0.9,2.4-2.2,4.3-3.8,5.6c-1.6,1.3-3.5,2-5.7,2s-4-0.7-5.7-2c-1.6-1.3-2.9-3.2-3.8-5.6c-0.9-2.4-1.4-5.3-1.4-8.5   C181.7,111.9,182.2,109.1,183.1,106.7z"/>
	<polygon class="st1" points="249.5,135.9 259.8,135.9 259.8,130.6 249.5,130.6 249.5,99.9 259.8,99.9 259.8,94.5 249.5,94.5    243.2,94.5 232.8,94.5 232.8,99.9 243.2,99.9 243.2,130.6 232.8,130.6 232.8,135.9 243.2,135.9  "/>
	<polygon class="st1" points="310.5,114.9 311,127.7 293.7,94.5 285.9,94.5 285.9,135.9 292,135.9 292,115.4 291.4,103.1    308.7,135.9 316.6,135.9 316.6,94.5 310.5,94.5  "/>
	<polygon class="st1" points="339.8,99.9 353.1,99.9 353.1,135.9 359.5,135.9 359.5,99.9 372.8,99.9 372.8,94.5 339.8,94.5  "/>
	<path class="st1" d="M425.1,94.5l-12.7,41.4h6.3l3.2-10.4h15.4l3.2,10.4h6.5l-12.8-41.4H425.1z M423.6,120.1l3.6-11.6l2.5-9.1   l2.4,9l3.6,11.6H423.6z"/>
	<path class="st1" d="M493.7,126.9c-0.9,1.4-2,2.5-3.4,3.2c-1.4,0.8-3,1.2-4.8,1.2c-2.1,0-4-0.6-5.7-1.9c-1.7-1.3-3-3.1-4-5.5   c-1-2.4-1.5-5.3-1.5-8.6c0-3.3,0.5-6.1,1.4-8.5c0.9-2.4,2.3-4.3,4-5.6c1.7-1.3,3.7-2,5.9-2c2.6,0,4.8,0.8,6.5,2.4   c1.7,1.6,2.6,3.7,2.9,6.4h6.9c-0.2-2.9-1.1-5.4-2.6-7.5c-1.5-2.1-3.4-3.7-5.7-4.9c-2.4-1.1-5-1.7-7.9-1.7c-3.6,0-6.7,0.9-9.5,2.6   c-2.7,1.8-4.8,4.2-6.3,7.4c-1.5,3.2-2.3,7-2.3,11.3c0,4.1,0.7,7.8,2.2,11.1c1.4,3.2,3.5,5.8,6.2,7.6c2.7,1.8,5.8,2.7,9.5,2.7   c3.2,0,6-0.6,8.4-1.8c2.4-1.2,4.3-2.9,5.7-5.1c1.4-2.2,2.3-4.7,2.5-7.7h-6.9C495.1,123.9,494.5,125.5,493.7,126.9z"/>
	<polygon class="st1" points="523.4,99.9 536.7,99.9 536.7,135.9 543,135.9 543,99.9 556.4,99.9 556.4,94.5 523.4,94.5  "/>
	<polygon class="st1" points="591.8,94.5 581.5,94.5 581.5,99.9 591.8,99.9 591.8,130.6 581.5,130.6 581.5,135.9 591.8,135.9    598.1,135.9 608.4,135.9 608.4,130.6 598.1,130.6 598.1,99.9 608.4,99.9 608.4,94.5 598.1,94.5  "/>
	<path class="st1" d="M659.3,96.4c-2.6-1.7-5.7-2.6-9.2-2.6c-3.5,0-6.6,0.9-9.2,2.6c-2.6,1.7-4.7,4.2-6.1,7.4   c-1.4,3.2-2.1,7-2.1,11.4c0,4.3,0.7,8.1,2.1,11.3c1.4,3.2,3.4,5.7,6.1,7.4c2.6,1.7,5.7,2.6,9.2,2.6c3.5,0,6.6-0.9,9.2-2.6   c2.6-1.7,4.6-4.2,6.1-7.4c1.4-3.2,2.2-7,2.2-11.3c0-4.4-0.7-8.2-2.2-11.4C664,100.6,662,98.2,659.3,96.4z M659.6,123.7   c-0.9,2.4-2.2,4.3-3.8,5.6c-1.6,1.3-3.5,2-5.7,2s-4-0.7-5.7-2c-1.6-1.3-2.9-3.2-3.8-5.6c-0.9-2.4-1.4-5.3-1.4-8.5   c0-3.3,0.5-6.1,1.4-8.5c0.9-2.4,2.2-4.2,3.8-5.6c1.6-1.3,3.5-2,5.7-2s4,0.7,5.7,2c1.6,1.3,2.9,3.2,3.8,5.6c0.9,2.4,1.4,5.3,1.4,8.5   C661,118.5,660.6,121.3,659.6,123.7z"/>
	<polygon class="st1" points="714.5,94.5 714.5,114.9 715,127.7 697.7,94.5 689.9,94.5 689.9,135.9 696,135.9 696,115.4    695.4,103.1 712.7,135.9 720.6,135.9 720.6,94.5  "/>
	<polygon class="st1" points="127,206.3 133.3,206.3 133.3,187.6 149.7,187.6 149.7,182.2 133.3,182.2 133.3,170.3 157,170.3    157,165 127,165  "/>
	<path class="st1" d="M201.8,166.9c-2.6-1.7-5.7-2.6-9.2-2.6c-3.5,0-6.6,0.9-9.2,2.6c-2.6,1.7-4.7,4.2-6.1,7.4   c-1.4,3.2-2.1,7-2.1,11.4c0,4.3,0.7,8.1,2.1,11.3c1.4,3.2,3.4,5.7,6.1,7.4c2.6,1.7,5.7,2.6,9.2,2.6c3.5,0,6.6-0.9,9.2-2.6   c2.6-1.7,4.6-4.2,6.1-7.4c1.4-3.2,2.2-7,2.2-11.3c0-4.4-0.7-8.2-2.2-11.4C206.4,171.1,204.4,168.6,201.8,166.9z M202.1,194.2   c-0.9,2.4-2.2,4.3-3.8,5.6c-1.6,1.3-3.5,2-5.7,2s-4-0.7-5.7-2c-1.6-1.3-2.9-3.2-3.8-5.6c-0.9-2.4-1.4-5.3-1.4-8.5   c0-3.3,0.5-6.1,1.4-8.5c0.9-2.4,2.2-4.2,3.8-5.6c1.6-1.3,3.5-2,5.7-2s4,0.7,5.7,2c1.6,1.3,2.9,3.2,3.8,5.6c0.9,2.4,1.4,5.3,1.4,8.5   C203.4,188.9,203,191.8,202.1,194.2z"/>
	<path class="st1" d="M259.1,185.3c1.4-1.2,2.4-2.5,3.1-4c0.7-1.5,1.1-3,1.1-4.6c0-2.4-0.6-4.6-1.8-6.3c-1.2-1.8-2.9-3.1-5.1-4   c-2.2-0.9-4.6-1.4-7.3-1.4h-10h-1.8h-4.6v41.4h6.3V189h5c1.1,0.6,2.1,1.3,3,2c1.9,1.4,3.5,3,4.8,4.7c1.3,1.7,2.3,3.4,3.1,5.2   c0.7,1.8,1.2,3.6,1.5,5.5h6.5c-0.2-1.9-0.6-3.9-1.3-5.8c-0.7-1.9-1.6-3.8-2.8-5.5c-1.2-1.8-2.8-3.5-4.7-5c-0.6-0.5-1.2-1-1.9-1.5   c0.6-0.1,1.2-0.3,1.8-0.5C256.1,187.3,257.8,186.4,259.1,185.3z M247.9,183.7h-8.7v-13.4h10c1.4,0,2.7,0.3,3.9,0.8   c1.1,0.5,2.1,1.3,2.7,2.2c0.7,0.9,1,2.1,1,3.4c0,1.4-0.4,2.7-1.1,3.7c-0.8,1-1.8,1.9-3.1,2.4C251.1,183.4,249.6,183.7,247.9,183.7z   "/>
</g>
</svg>